PathFileType	4	(X/Y/Z)	D:\TRACE\spotREDO_2-26-24\spot_Both_Motion_3_9-v60.trc
DataRate	CameraRate	NumFrames	NumMarkers	Units	OrigDataRate	OrigDataStartFrame	OrigNumFrames
100.00	100.00	      42	9	mm	100.00	876	      7000
Frame#	Time	front left toe			Front right toe			aft left toe			aft right toe			Arm			FL body			FR body			AL Body			AR Body			
		X1	Y1	Z1	X2	Y2	Z2	X3	Y3	Z3	X4	Y4	Z4	X5	Y5	Z5	X6	Y6	Z6	X7	Y7	Z7	X8	Y8	Z8	X9	Y9	Z9	

876	8.750	-163.06465	-5.69064	-460.37219	265.21884	-6.04446	-473.96790	-136.99353	24.49549	131.61821	273.46457	29.80252	102.04435	69.32636	651.44897	-792.55554	-50.17035	530.78796	-527.81323	105.10011	533.34381	-535.33728	-14.61031	578.19653	354.17056	132.47395	570.63641	350.29550	
877	8.760	-162.98029	-5.39524	-460.38007	265.33017	-5.98034	-474.03024	-136.96327	24.59970	131.64070	273.71542	29.84431	102.12007	69.74454	652.10913	-792.33820	-49.44159	530.83704	-527.90393	105.94431	533.33160	-535.44122	-13.58545	577.91101	354.07523	133.74849	570.17975	350.27975	
878	8.770	-163.01912	-5.04143	-460.41461	265.43738	-5.95609	-473.73950	-136.92332	24.59413	131.67886	273.62051	29.73879	102.24821	69.90727	652.92438	-792.15906	-48.55270	530.88568	-527.94855	106.96217	533.31567	-535.44476	-12.95292	577.69922	354.07538	134.25388	570.00769	350.35172	
879	8.780	-162.99612	-4.89353	-460.39597	265.40430	-5.80901	-473.65088	-136.93564	24.53965	131.65994	273.60742	29.61941	102.24050	69.79860	653.53503	-791.88849	-47.70395	531.07056	-527.94653	107.77353	532.95648	-534.85815	-11.84387	577.37817	354.08469	135.10757	569.54858	350.35431	
880	8.790	-162.96429	-4.70457	-460.37134	265.41400	-5.98798	-473.66031	-136.95749	24.49145	131.73892	273.56494	29.62492	102.31919	70.15907	654.09485	-791.29803	-46.51422	531.14178	-527.73199	108.68904	533.05627	-534.80109	-11.03844	577.12134	354.26440	136.03813	569.13318	350.32019	
881	8.800	-162.88438	-4.43037	-460.26569	265.53696	-5.40143	-473.27588	-136.90187	24.44680	131.85997	273.65060	29.50295	102.41752	70.24323	654.41028	-790.95532	-45.74107	531.33563	-527.65424	109.74913	533.16986	-534.52698	-9.99611	576.76440	354.57599	137.01791	568.90057	350.74390	
882	8.810	-162.72096	-4.02372	-460.25122	265.71210	-5.33878	-473.19086	-136.78801	24.61908	131.90300	273.78348	29.51770	102.54645	70.11870	654.66138	-790.45026	-44.71610	531.65576	-527.50757	110.62024	533.63776	-534.81165	-9.10126	576.71313	354.86774	137.99200	568.87079	351.08981	
883	8.820	-162.51552	-3.63021	-460.17020	265.77710	-5.28209	-473.12100	-136.69113	24.66657	132.04768	274.13458	29.64427	102.77035	70.02389	654.73169	-790.05164	-43.86278	531.84692	-527.11456	111.45567	533.74310	-534.52441	-8.13221	576.71088	355.24680	139.12880	568.61774	351.39078	
884	8.830	-162.32860	-3.44360	-460.02692	265.67209	-5.17257	-473.13269	-136.67949	24.69989	132.07896	273.93069	29.51671	102.87803	69.89393	654.67285	-789.88043	-42.71550	531.80853	-526.59930	112.58733	533.84570	-534.14960	-7.05861	576.59100	355.60693	139.81685	568.52411	351.64728	
885	8.840	-162.27893	-3.31970	-459.95184	265.51520	-5.11879	-473.07590	-136.61021	24.63159	132.16953	274.04065	29.47824	103.01830	69.79673	654.59839	-789.81268	-41.89824	531.73975	-526.25305	113.53427	533.74744	-533.45465	-6.04881	576.41718	355.91837	141.21417	568.45508	352.23315	
886	8.850	-162.31406	-3.21831	-459.91409	265.49261	-4.90464	-472.93680	-136.59364	24.55523	132.28650	274.04724	29.42386	103.18804	69.72661	654.44537	-789.78625	-40.99287	531.73730	-525.97906	114.35624	533.96722	-533.47046	-5.31899	576.37726	356.23102	141.74252	568.39307	352.48245	
887	8.860	-162.40894	-2.91471	-459.87540	265.41360	-4.84776	-472.85422	-136.58348	24.57571	132.32373	273.99747	29.26096	103.35651	69.67393	654.35516	-789.77069	-39.91494	531.67267	-525.43512	115.37626	533.91034	-533.02344	-4.25690	576.24921	356.65958	142.94620	568.35352	352.89517	
888	8.870	-162.54678	-2.54008	-459.85654	265.25055	-4.37821	-472.60233	-136.68805	24.66341	132.38445	274.13596	29.18727	103.48948	69.66010	654.28040	-789.73462	-39.12990	531.79669	-525.21454	116.22294	533.82788	-532.59247	-3.05815	576.07800	357.08527	144.53043	568.46552	353.68924	
889	8.880	-162.70331	-2.21218	-459.81223	265.26868	-4.24040	-472.51859	-136.77716	24.75788	132.48209	274.05670	29.00040	103.52029	69.68272	654.25232	-789.58838	-37.92171	531.67236	-524.63434	117.46599	533.46686	-531.61688	-1.84037	576.03296	357.61627	145.23003	568.29144	353.71069	
890	8.890	-162.72659	-2.01228	-459.71631	265.38403	-4.43820	-472.60422	-136.77298	24.81635	132.54132	274.08099	28.81176	103.56818	69.74438	654.25641	-789.31476	-37.21033	531.45874	-524.25299	118.11542	533.50879	-531.55957	-0.53255	575.94873	358.12125	146.03743	568.31689	354.05246	
891	8.900	-162.71375	-1.83652	-459.65305	265.08292	-4.13548	-472.59723	-136.78203	24.80844	132.59666	274.22913	28.71505	103.63522	69.80048	654.43726	-789.31006	-36.06585	531.18817	-523.63110	119.15437	533.47260	-531.05518	0.46070	575.84595	358.62283	147.50436	568.28149	354.76511	
892	8.910	-162.66968	-1.68827	-459.59494	265.09430	-4.13181	-472.56674	-136.77385	24.79294	132.58536	274.22418	28.49368	103.69365	69.84245	654.43469	-789.24170	-35.23650	531.21423	-522.97223	120.10778	533.42523	-530.63837	1.30087	575.75378	359.06647	148.50912	568.16870	355.08038	
893	8.920	-162.68158	-1.41293	-459.56439	265.11191	-3.99689	-472.52252	-136.73291	24.90280	132.63324	274.37692	28.44238	103.78551	69.88506	654.40710	-789.21082	-34.04086	531.17841	-522.57544	121.41545	533.23486	-529.57599	2.46883	575.67432	359.68655	149.72731	568.09680	355.61292	
894	8.930	-162.60411	-1.13793	-459.52209	265.07077	-3.83646	-472.39276	-136.79285	24.97624	132.66550	274.28339	28.32646	103.81915	69.94958	654.26129	-789.17902	-33.05466	531.05914	-521.94464	122.24900	533.48279	-529.73907	3.62356	575.61145	360.12143	150.75555	568.13513	356.18982	
895	8.940	-162.59488	-0.88672	-459.36838	265.01108	-3.56982	-472.13406	-136.81438	25.03695	132.75171	274.31635	28.33117	103.89605	69.91393	654.17853	-789.03003	-31.87675	530.91388	-521.42499	123.58060	533.47778	-529.08508	4.86478	575.54486	360.61063	151.93246	567.96387	356.72095	
896	8.950	-162.51630	-0.72374	-459.26761	265.00491	-3.44724	-472.00967	-136.81224	24.98893	132.76489	274.32834	28.28365	103.98916	70.10704	653.86853	-788.88019	-30.71228	530.60730	-520.80573	124.59658	533.41077	-528.48120	6.03958	575.52954	361.35474	153.04042	568.06323	357.51382	
897	8.960	-162.49222	-0.58600	-459.16483	265.21509	-3.58508	-471.86963	-136.79805	25.01909	132.79355	274.35254	28.23283	104.06745	69.92641	653.91840	-788.77228	-29.54984	530.65509	-520.09924	125.93993	533.30713	-527.78064	7.00687	575.59924	362.02444	154.33693	568.02899	357.89182	
898	8.970	-162.51816	-0.27678	-459.10419	265.18100	-3.58116	-471.87000	-136.75526	25.06852	132.82198	274.20917	28.14104	104.06608	69.99633	653.85748	-788.54596	-27.83708	530.45435	-519.61377	127.30060	533.11530	-527.08197	8.07072	575.46484	362.65421	155.02600	568.21997	358.72452	
899	8.980	-162.46613	0.03276	-459.07166	265.17609	-3.59120	-471.86877	-136.79932	25.12977	132.89308	274.27939	28.09315	104.28779	69.92357	653.93475	-788.24744	-26.55198	530.52777	-518.97083	128.59508	533.18469	-526.39551	9.12318	575.31281	363.17661	156.27908	568.20996	359.49216	
900	8.990	-162.50168	0.22678	-459.12036	265.22821	-3.83225	-471.79138	-136.83730	25.13665	132.93369	274.22192	28.07511	104.39045	69.86150	653.93732	-788.07690	-25.07708	530.41248	-518.08344	130.19708	533.18866	-525.51862	10.70873	575.34546	364.06219	157.77835	568.30780	360.25089	
901	9.000	-162.20634	2.21693	-458.50925	265.32547	-3.75470	-471.36972	-136.82143	25.18146	133.01259	274.04980	27.65801	104.84613	69.79714	653.89435	-787.97540	-23.65040	530.31024	-517.42572	131.68385	533.18878	-524.67224	12.01865	575.39941	364.82761	159.00760	568.25586	360.94220	
902	9.010	-163.35445	9.36117	-455.28812	266.70819	-4.03027	-470.73489	-136.58957	25.33826	132.89766	274.59793	26.99167	105.02174	69.89680	653.85114	-787.83807	-21.85285	529.85248	-516.72778	133.41165	533.33917	-524.03235	12.58310	575.06354	365.38614	160.03696	568.19171	361.89133	
903	9.020	-159.56805	19.30417	-452.25064	267.45663	-3.90318	-470.13126	-136.21764	25.52140	132.82266	274.61938	26.83500	105.08236	70.11342	653.89337	-787.53174	-20.22916	529.37915	-516.39441	135.18529	533.14166	-523.03900	13.34275	574.81396	365.91989	160.40982	568.44348	362.55521	
904	9.030	-160.48825	31.23030	-450.64493	267.26434	-4.13055	-470.61224	-136.30316	25.47281	132.92058	274.70709	27.01154	105.24897	70.18610	653.92163	-787.55286	-18.87509	529.12402	-515.90918	136.65034	533.23029	-522.80933	14.22675	574.74445	366.33035	161.30090	568.66797	362.99744	
905	9.040	-161.71976	42.46450	-452.59937	267.21082	-3.86241	-470.28183	-136.39258	25.63838	133.13188	274.72247	27.05852	105.33830	70.23248	654.13684	-787.70374	-17.68521	528.60010	-515.33936	137.34462	533.37286	-522.33984	15.19058	574.53760	367.03989	162.34892	569.10559	363.58658	
906	9.050	-163.15594	51.84330	-456.53391	267.11914	-3.76042	-470.39130	-136.29247	25.71050	133.24451	274.66168	26.71994	105.22141	70.22949	654.33844	-787.34528	-16.98296	528.60394	-514.73602	138.43208	533.23035	-521.05609	15.91084	574.39026	367.62939	163.14392	569.23175	364.09512	
907	9.060	-164.23555	58.34522	-460.46118	266.86118	-3.23455	-470.40350	-136.17900	25.95251	133.27859	274.63544	26.45172	105.24948	69.85142	654.30396	-786.99799	-16.79567	528.91833	-514.06793	138.59837	533.77722	-521.12415	16.87900	574.25519	368.32480	163.92424	569.09943	364.69797	
908	9.070	-162.43579	60.94257	-461.97427	266.73642	-3.10238	-470.52402	-136.17488	26.02908	133.44415	274.69226	26.33693	105.27777	69.95321	653.99353	-787.08105	-16.64429	529.14960	-513.37592	138.77095	534.11688	-520.72479	17.55664	574.08954	368.73996	165.16368	568.89972	365.22217	
909	9.080	-161.44402	60.54403	-461.19879	266.53683	-2.88045	-470.48459	-136.12891	25.97601	133.50636	274.73303	26.17852	105.34512	70.14126	654.02631	-786.90430	-16.33125	529.29047	-512.80432	138.77933	534.57312	-520.18408	18.09031	573.98822	369.33606	165.48164	568.79382	365.58527	
910	9.090	-159.95190	58.16619	-459.58301	266.51062	-2.79570	-470.53473	-136.06328	25.97563	133.65771	274.79865	26.18995	105.44238	70.60410	653.85675	-786.84448	-16.36342	529.64423	-512.39575	139.13660	534.73212	-519.34717	18.58524	573.76013	369.95541	165.66496	568.87701	365.90451	
911	9.100	-160.04971	57.04313	-458.51001	266.45911	-2.34955	-470.32608	-136.06886	25.82785	133.75606	274.73212	26.27709	105.57349	71.07307	653.72211	-786.94806	-16.15083	529.67761	-512.07697	138.98407	535.14673	-519.45410	18.78392	573.77606	370.30276	165.79007	569.01935	366.32816	
912	9.110	-159.82358	57.61942	-458.09622	266.62924	-2.17044	-470.24942	-136.05968	25.66443	133.91254	274.69290	26.39831	105.63750	71.34728	653.66821	-787.05255	-16.15394	529.51440	-511.68848	139.10332	535.16528	-519.10852	18.71845	573.83514	370.47458	165.73108	569.16229	366.72717	
913	9.120	-159.64642	58.57598	-457.54724	266.54407	-2.01339	-470.11316	-136.13823	25.45466	133.99580	274.72885	26.49124	105.81894	72.09116	653.57849	-787.19525	-16.20795	529.29932	-511.37448	138.88927	534.93195	-518.92651	18.40125	573.87634	370.71484	165.66338	569.20258	366.89624	
914	9.130	-159.53468	58.98938	-457.35428	266.50787	-1.95816	-470.05182	-136.30064	25.20321	134.01387	274.68823	26.50517	105.86541	73.01773	653.44202	-786.90155	-16.78534	529.26178	-511.17178	138.51915	534.73926	-518.71478	18.14874	573.97272	370.92151	165.62827	569.17310	367.18326	
915	9.140	-156.74944	60.66880	-457.07669	266.28912	-1.60525	-470.11615	-136.33035	24.99995	134.11540	274.72824	26.53143	105.89478	73.99615	653.59418	-786.58502	-17.59825	529.19824	-511.08920	137.70200	534.52850	-518.68719	17.97725	574.05701	370.97037	165.39720	569.15839	367.14618	
916	9.150	-153.25844	61.94946	-457.42224	266.07928	-1.39141	-470.26999	-136.33896	24.93879	134.25397	274.70602	26.45907	105.87669	75.25173	653.76843	-786.68060	-18.46337	529.21161	-511.01135	136.66409	534.61151	-518.67590	17.76902	574.13080	370.99930	165.19110	569.10040	367.09558	
917	9.160	-149.03819	61.81810	-458.08081	265.88107	-1.24677	-470.37726	-136.39149	24.92975	134.32947	274.70810	26.45322	105.84932	77.57629	653.82220	-786.33105	-19.33305	529.05725	-510.87589	135.90363	534.60675	-518.79047	17.36665	574.17566	371.00000	164.72598	569.24969	366.99539	
